{
  "asset": { "version": "2.0", "generator": "learning-adventure-island world-asset-pipeline" },
  "scene": 0,
  "scenes": [{ "nodes": [0, 1, 2, 3] }],
  "nodes": [
    {
      "name": "HiveBase",
      "mesh": 0,
      "translation": [0, 0, 0],
      "rotation": [0, 0, 0, 1],
      "scale": [1, 1, 1]
    },
    {
      "name": "HiveMid",
      "mesh": 1,
      "translation": [0, 0.34, 0],
      "rotation": [0, 0, 0, 1],
      "scale": [1, 1, 1]
    },
    {
      "name": "HiveTop",
      "mesh": 2,
      "translation": [0, 0.64, 0],
      "rotation": [0, 0, 0, 1],
      "scale": [1, 1, 1]
    },
    {
      "name": "HiveDoor",
      "mesh": 3,
      "translation": [0, 0.12, 0.5],
      "rotation": [0, 0, 0, 1],
      "scale": [1, 1, 1]
    }
  ],
  "meshes": [
    {
      "name": "HiveBaseMesh",
      "primitives": [
        { "attributes": { "POSITION": 0, "NORMAL": 1 }, "indices": 2, "material": 0, "mode": 4 }
      ]
    },
    {
      "name": "HiveMidMesh",
      "primitives": [
        { "attributes": { "POSITION": 3, "NORMAL": 4 }, "indices": 5, "material": 1, "mode": 4 }
      ]
    },
    {
      "name": "HiveTopMesh",
      "primitives": [
        { "attributes": { "POSITION": 6, "NORMAL": 7 }, "indices": 8, "material": 2, "mode": 4 }
      ]
    },
    {
      "name": "HiveDoorMesh",
      "primitives": [
        { "attributes": { "POSITION": 9, "NORMAL": 10 }, "indices": 11, "material": 3, "mode": 4 }
      ]
    }
  ],
  "materials": [
    {
      "name": "HiveBaseMaterial",
      "pbrMetallicRoughness": {
        "baseColorFactor": [0.788235294117647, 0.5725490196078431, 0.1843137254901961, 1],
        "metallicFactor": 0.1,
        "roughnessFactor": 0.85
      },
      "doubleSided": true
    },
    {
      "name": "HiveMidMaterial",
      "pbrMetallicRoughness": {
        "baseColorFactor": [0.8784313725490196, 0.7019607843137254, 0.33725490196078434, 1],
        "metallicFactor": 0.1,
        "roughnessFactor": 0.85
      },
      "doubleSided": true
    },
    {
      "name": "HiveTopMaterial",
      "pbrMetallicRoughness": {
        "baseColorFactor": [0.788235294117647, 0.5725490196078431, 0.1843137254901961, 1],
        "metallicFactor": 0.1,
        "roughnessFactor": 0.85
      },
      "doubleSided": true
    },
    {
      "name": "HiveDoorMaterial",
      "pbrMetallicRoughness": {
        "baseColorFactor": [0.2, 0.1607843137254902, 0.10196078431372549, 1],
        "metallicFactor": 0.1,
        "roughnessFactor": 0.85
      },
      "doubleSided": true
    }
  ],
  "accessors": [
    {
      "bufferView": 0,
      "componentType": 5126,
      "count": 64,
      "type": "VEC3",
      "min": [-0.5230810839623345, 0, -0.55],
      "max": [0.5230810839623345, 0.34, 0.55]
    },
    { "bufferView": 1, "componentType": 5126, "count": 64, "type": "VEC3" },
    { "bufferView": 2, "componentType": 5123, "count": 120, "type": "SCALAR" },
    {
      "bufferView": 3,
      "componentType": 5126,
      "count": 64,
      "type": "VEC3",
      "min": [-0.4755282581475768, 0, -0.5],
      "max": [0.4755282581475768, 0.3, 0.5]
    },
    { "bufferView": 4, "componentType": 5126, "count": 64, "type": "VEC3" },
    { "bufferView": 5, "componentType": 5123, "count": 120, "type": "SCALAR" },
    {
      "bufferView": 6,
      "componentType": 5126,
      "count": 43,
      "type": "VEC3",
      "min": [-0.3804226065180615, 0, -0.4],
      "max": [0.3804226065180615, 0.3, 0.4]
    },
    { "bufferView": 7, "componentType": 5126, "count": 43, "type": "VEC3" },
    { "bufferView": 8, "componentType": 5123, "count": 60, "type": "SCALAR" },
    {
      "bufferView": 9,
      "componentType": 5126,
      "count": 96,
      "type": "VEC3",
      "min": [-0.1385640646055102, 0, 0],
      "max": [0.13856406460551018, 0.32, 0.08]
    },
    { "bufferView": 10, "componentType": 5126, "count": 96, "type": "VEC3" },
    { "bufferView": 11, "componentType": 5123, "count": 144, "type": "SCALAR" }
  ],
  "bufferViews": [
    { "buffer": 0, "byteOffset": 0, "byteLength": 768, "target": 34962 },
    { "buffer": 0, "byteOffset": 768, "byteLength": 768, "target": 34962 },
    { "buffer": 0, "byteOffset": 1536, "byteLength": 240, "target": 34963 },
    { "buffer": 0, "byteOffset": 1776, "byteLength": 768, "target": 34962 },
    { "buffer": 0, "byteOffset": 2544, "byteLength": 768, "target": 34962 },
    { "buffer": 0, "byteOffset": 3312, "byteLength": 240, "target": 34963 },
    { "buffer": 0, "byteOffset": 3552, "byteLength": 516, "target": 34962 },
    { "buffer": 0, "byteOffset": 4068, "byteLength": 516, "target": 34962 },
    { "buffer": 0, "byteOffset": 4584, "byteLength": 120, "target": 34963 },
    { "buffer": 0, "byteOffset": 4704, "byteLength": 1152, "target": 34962 },
    { "buffer": 0, "byteOffset": 5856, "byteLength": 1152, "target": 34962 },
    { "buffer": 0, "byteOffset": 7008, "byteLength": 288, "target": 34963 }
  ],
  "buffers": [
    {
      "uri": "data:application/octet-stream;base64,",
      "byteLength": 7296
    }
  ]
}
