{
  "asset": { "version": "2.0", "generator": "learning-adventure-island world-asset-pipeline" },
  "scene": 0,
  "scenes": [{ "nodes": [0, 1, 2] }],
  "nodes": [
    {
      "name": "Body",
      "mesh": 0,
      "translation": [0, 0, 0],
      "rotation": [0, 0, 0, 1],
      "scale": [1, 1, 1]
    },
    {
      "name": "Head",
      "mesh": 1,
      "translation": [0.12, 0.14, 0],
      "rotation": [0, 0, 0, 1],
      "scale": [1, 1, 1]
    },
    {
      "name": "Tail",
      "mesh": 2,
      "translation": [-0.15, 0.06, 0],
      "rotation": [0, 0, 0.49999999999999994, 0.8660254037844387],
      "scale": [1, 1, 1]
    }
  ],
  "meshes": [
    {
      "name": "BodyMesh",
      "primitives": [
        { "attributes": { "POSITION": 0, "NORMAL": 1 }, "indices": 2, "material": 0, "mode": 4 }
      ]
    },
    {
      "name": "HeadMesh",
      "primitives": [
        { "attributes": { "POSITION": 3, "NORMAL": 4 }, "indices": 5, "material": 1, "mode": 4 }
      ]
    },
    {
      "name": "TailMesh",
      "primitives": [
        { "attributes": { "POSITION": 6, "NORMAL": 7 }, "indices": 8, "material": 2, "mode": 4 }
      ]
    }
  ],
  "materials": [
    {
      "name": "BodyMaterial",
      "pbrMetallicRoughness": {
        "baseColorFactor": [0.7529411764705882, 0.5411764705882353, 0.2901960784313726, 1],
        "metallicFactor": 0.1,
        "roughnessFactor": 0.85
      },
      "doubleSided": true
    },
    {
      "name": "HeadMaterial",
      "pbrMetallicRoughness": {
        "baseColorFactor": [0.7529411764705882, 0.5411764705882353, 0.2901960784313726, 1],
        "metallicFactor": 0.1,
        "roughnessFactor": 0.85
      },
      "doubleSided": true
    },
    {
      "name": "TailMaterial",
      "pbrMetallicRoughness": {
        "baseColorFactor": [0.7529411764705882, 0.5411764705882353, 0.2901960784313726, 1],
        "metallicFactor": 0.1,
        "roughnessFactor": 0.85
      },
      "doubleSided": true
    }
  ],
  "accessors": [
    {
      "bufferView": 0,
      "componentType": 5126,
      "count": 24,
      "type": "VEC3",
      "min": [-0.12, 0, -0.005],
      "max": [0.12, 0.14, 0.005]
    },
    { "bufferView": 1, "componentType": 5126, "count": 24, "type": "VEC3" },
    { "bufferView": 2, "componentType": 5123, "count": 36, "type": "SCALAR" },
    {
      "bufferView": 3,
      "componentType": 5126,
      "count": 19,
      "type": "VEC3",
      "min": [-0.08, 0, -0.08],
      "max": [0.08, 0.14, 0.08]
    },
    { "bufferView": 4, "componentType": 5126, "count": 19, "type": "VEC3" },
    { "bufferView": 5, "componentType": 5123, "count": 24, "type": "SCALAR" },
    {
      "bufferView": 6,
      "componentType": 5126,
      "count": 15,
      "type": "VEC3",
      "min": [-0.043301270189221926, 0, -0.025000000000000022],
      "max": [0.04330127018922194, 0.18, 0.05]
    },
    { "bufferView": 7, "componentType": 5126, "count": 15, "type": "VEC3" },
    { "bufferView": 8, "componentType": 5123, "count": 18, "type": "SCALAR" }
  ],
  "bufferViews": [
    { "buffer": 0, "byteOffset": 0, "byteLength": 288, "target": 34962 },
    { "buffer": 0, "byteOffset": 288, "byteLength": 288, "target": 34962 },
    { "buffer": 0, "byteOffset": 576, "byteLength": 72, "target": 34963 },
    { "buffer": 0, "byteOffset": 648, "byteLength": 228, "target": 34962 },
    { "buffer": 0, "byteOffset": 876, "byteLength": 228, "target": 34962 },
    { "buffer": 0, "byteOffset": 1104, "byteLength": 48, "target": 34963 },
    { "buffer": 0, "byteOffset": 1152, "byteLength": 180, "target": 34962 },
    { "buffer": 0, "byteOffset": 1332, "byteLength": 180, "target": 34962 },
    { "buffer": 0, "byteOffset": 1512, "byteLength": 36, "target": 34963 }
  ],
  "buffers": [
    {
      "uri": "data:application/octet-stream;base64,",
      "byteLength": 1548
    }
  ]
}
