{
  "asset": { "version": "2.0", "generator": "learning-adventure-island world-asset-pipeline" },
  "scene": 0,
  "scenes": [{ "nodes": [0] }],
  "nodes": [
    {
      "name": "Scroll",
      "mesh": 0,
      "translation": [0, 0, 0],
      "rotation": [0, 0, 0, 1],
      "scale": [1, 1, 1]
    }
  ],
  "meshes": [
    {
      "name": "ScrollMesh",
      "primitives": [
        { "attributes": { "POSITION": 0, "NORMAL": 1 }, "indices": 2, "material": 0, "mode": 4 }
      ]
    }
  ],
  "materials": [
    {
      "name": "ScrollMaterial",
      "pbrMetallicRoughness": {
        "baseColorFactor": [0.9019607843137255, 0.8627450980392157, 0.7529411764705882, 1],
        "metallicFactor": 0.1,
        "roughnessFactor": 0.85
      },
      "doubleSided": true
    }
  ],
  "accessors": [
    {
      "bufferView": 0,
      "componentType": 5126,
      "count": 64,
      "type": "VEC3",
      "min": [-0.047552825814757685, 0, -0.05],
      "max": [0.047552825814757685, 0.3, 0.05]
    },
    { "bufferView": 1, "componentType": 5126, "count": 64, "type": "VEC3" },
    { "bufferView": 2, "componentType": 5123, "count": 120, "type": "SCALAR" }
  ],
  "bufferViews": [
    { "buffer": 0, "byteOffset": 0, "byteLength": 768, "target": 34962 },
    { "buffer": 0, "byteOffset": 768, "byteLength": 768, "target": 34962 },
    { "buffer": 0, "byteOffset": 1536, "byteLength": 240, "target": 34963 }
  ],
  "buffers": [
    {
      "uri": "data:application/octet-stream;base64,",
      "byteLength": 1776
    }
  ]
}
