{
  "asset": { "version": "2.0", "generator": "learning-adventure-island world-asset-pipeline" },
  "scene": 0,
  "scenes": [{ "nodes": [0] }],
  "nodes": [
    {
      "name": "Cell",
      "mesh": 0,
      "translation": [0, 0, 0],
      "rotation": [0, 0, 0, 1],
      "scale": [1, 1, 1]
    }
  ],
  "meshes": [
    {
      "name": "CellMesh",
      "primitives": [
        { "attributes": { "POSITION": 0, "NORMAL": 1 }, "indices": 2, "material": 0, "mode": 4 }
      ]
    }
  ],
  "materials": [
    {
      "name": "CellMaterial",
      "pbrMetallicRoughness": {
        "baseColorFactor": [0.788235294117647, 0.5725490196078431, 0.1843137254901961, 1],
        "metallicFactor": 0.1,
        "roughnessFactor": 0.85
      },
      "doubleSided": true
    }
  ],
  "accessors": [
    {
      "bufferView": 0,
      "componentType": 5126,
      "count": 96,
      "type": "VEC3",
      "min": [-0.6062177826491071, 0, 0],
      "max": [0.606217782649107, 1.4, 0.4]
    },
    { "bufferView": 1, "componentType": 5126, "count": 96, "type": "VEC3" },
    { "bufferView": 2, "componentType": 5123, "count": 144, "type": "SCALAR" }
  ],
  "bufferViews": [
    { "buffer": 0, "byteOffset": 0, "byteLength": 1152, "target": 34962 },
    { "buffer": 0, "byteOffset": 1152, "byteLength": 1152, "target": 34962 },
    { "buffer": 0, "byteOffset": 2304, "byteLength": 288, "target": 34963 }
  ],
  "buffers": [
    {
      "uri": "data:application/octet-stream;base64,",
      "byteLength": 2592
    }
  ]
}
