{
  "asset": { "version": "2.0", "generator": "learning-adventure-island world-asset-pipeline" },
  "scene": 0,
  "scenes": [{ "nodes": [0, 1, 2, 3, 4, 5] }],
  "nodes": [
    {
      "name": "PostLeft",
      "mesh": 0,
      "translation": [-0.55, 0, 0],
      "rotation": [0, 0, 0, 1],
      "scale": [1, 1, 1]
    },
    {
      "name": "PostRight",
      "mesh": 1,
      "translation": [0.55, 0, 0],
      "rotation": [0, 0, 0, 1],
      "scale": [1, 1, 1]
    },
    {
      "name": "Rail",
      "mesh": 2,
      "translation": [0, 1.7, 0],
      "rotation": [0, 0, 0, 1],
      "scale": [1, 1, 1]
    },
    {
      "name": "Garment1",
      "mesh": 3,
      "translation": [-0.35, 0.72, 0],
      "rotation": [0, 0, 0, 1],
      "scale": [1, 1, 1]
    },
    {
      "name": "Garment2",
      "mesh": 4,
      "translation": [0, 0.72, 0],
      "rotation": [0, 0, 0, 1],
      "scale": [1, 1, 1]
    },
    {
      "name": "Garment3",
      "mesh": 5,
      "translation": [0.35, 0.72, 0],
      "rotation": [0, 0, 0, 1],
      "scale": [1, 1, 1]
    }
  ],
  "meshes": [
    {
      "name": "PostLeftMesh",
      "primitives": [
        { "attributes": { "POSITION": 0, "NORMAL": 1 }, "indices": 2, "material": 0, "mode": 4 }
      ]
    },
    {
      "name": "PostRightMesh",
      "primitives": [
        { "attributes": { "POSITION": 3, "NORMAL": 4 }, "indices": 5, "material": 1, "mode": 4 }
      ]
    },
    {
      "name": "RailMesh",
      "primitives": [
        { "attributes": { "POSITION": 6, "NORMAL": 7 }, "indices": 8, "material": 2, "mode": 4 }
      ]
    },
    {
      "name": "Garment1Mesh",
      "primitives": [
        { "attributes": { "POSITION": 9, "NORMAL": 10 }, "indices": 11, "material": 3, "mode": 4 }
      ]
    },
    {
      "name": "Garment2Mesh",
      "primitives": [
        { "attributes": { "POSITION": 12, "NORMAL": 13 }, "indices": 14, "material": 4, "mode": 4 }
      ]
    },
    {
      "name": "Garment3Mesh",
      "primitives": [
        { "attributes": { "POSITION": 15, "NORMAL": 16 }, "indices": 17, "material": 5, "mode": 4 }
      ]
    }
  ],
  "materials": [
    {
      "name": "PostLeftMaterial",
      "pbrMetallicRoughness": {
        "baseColorFactor": [0.4196078431372549, 0.43529411764705883, 0.4627450980392157, 1],
        "metallicFactor": 0.1,
        "roughnessFactor": 0.85
      },
      "doubleSided": true
    },
    {
      "name": "PostRightMaterial",
      "pbrMetallicRoughness": {
        "baseColorFactor": [0.4196078431372549, 0.43529411764705883, 0.4627450980392157, 1],
        "metallicFactor": 0.1,
        "roughnessFactor": 0.85
      },
      "doubleSided": true
    },
    {
      "name": "RailMaterial",
      "pbrMetallicRoughness": {
        "baseColorFactor": [0.4196078431372549, 0.43529411764705883, 0.4627450980392157, 1],
        "metallicFactor": 0.1,
        "roughnessFactor": 0.85
      },
      "doubleSided": true
    },
    {
      "name": "Garment1Material",
      "pbrMetallicRoughness": {
        "baseColorFactor": [0.5490196078431373, 0.2901960784313726, 0.23137254901960785, 1],
        "metallicFactor": 0.1,
        "roughnessFactor": 0.85
      },
      "doubleSided": true
    },
    {
      "name": "Garment2Material",
      "pbrMetallicRoughness": {
        "baseColorFactor": [0.2901960784313726, 0.3568627450980392, 0.5490196078431373, 1],
        "metallicFactor": 0.1,
        "roughnessFactor": 0.85
      },
      "doubleSided": true
    },
    {
      "name": "Garment3Material",
      "pbrMetallicRoughness": {
        "baseColorFactor": [0.30980392156862746, 0.5607843137254902, 0.35294117647058826, 1],
        "metallicFactor": 0.1,
        "roughnessFactor": 0.85
      },
      "doubleSided": true
    }
  ],
  "accessors": [
    {
      "bufferView": 0,
      "componentType": 5126,
      "count": 40,
      "type": "VEC3",
      "min": [-0.034641016151377546, 0, -0.04],
      "max": [0.034641016151377546, 1.7, 0.04]
    },
    { "bufferView": 1, "componentType": 5126, "count": 40, "type": "VEC3" },
    { "bufferView": 2, "componentType": 5123, "count": 72, "type": "SCALAR" },
    {
      "bufferView": 3,
      "componentType": 5126,
      "count": 40,
      "type": "VEC3",
      "min": [-0.034641016151377546, 0, -0.04],
      "max": [0.034641016151377546, 1.7, 0.04]
    },
    { "bufferView": 4, "componentType": 5126, "count": 40, "type": "VEC3" },
    { "bufferView": 5, "componentType": 5123, "count": 72, "type": "SCALAR" },
    {
      "bufferView": 6,
      "componentType": 5126,
      "count": 24,
      "type": "VEC3",
      "min": [-0.6, 0, -0.025],
      "max": [0.6, 0.05, 0.025]
    },
    { "bufferView": 7, "componentType": 5126, "count": 24, "type": "VEC3" },
    { "bufferView": 8, "componentType": 5123, "count": 36, "type": "SCALAR" },
    {
      "bufferView": 9,
      "componentType": 5126,
      "count": 24,
      "type": "VEC3",
      "min": [-0.14, 0, -0.06],
      "max": [0.14, 0.9, 0.06]
    },
    { "bufferView": 10, "componentType": 5126, "count": 24, "type": "VEC3" },
    { "bufferView": 11, "componentType": 5123, "count": 36, "type": "SCALAR" },
    {
      "bufferView": 12,
      "componentType": 5126,
      "count": 24,
      "type": "VEC3",
      "min": [-0.14, 0, -0.06],
      "max": [0.14, 0.9, 0.06]
    },
    { "bufferView": 13, "componentType": 5126, "count": 24, "type": "VEC3" },
    { "bufferView": 14, "componentType": 5123, "count": 36, "type": "SCALAR" },
    {
      "bufferView": 15,
      "componentType": 5126,
      "count": 24,
      "type": "VEC3",
      "min": [-0.14, 0, -0.06],
      "max": [0.14, 0.9, 0.06]
    },
    { "bufferView": 16, "componentType": 5126, "count": 24, "type": "VEC3" },
    { "bufferView": 17, "componentType": 5123, "count": 36, "type": "SCALAR" }
  ],
  "bufferViews": [
    { "buffer": 0, "byteOffset": 0, "byteLength": 480, "target": 34962 },
    { "buffer": 0, "byteOffset": 480, "byteLength": 480, "target": 34962 },
    { "buffer": 0, "byteOffset": 960, "byteLength": 144, "target": 34963 },
    { "buffer": 0, "byteOffset": 1104, "byteLength": 480, "target": 34962 },
    { "buffer": 0, "byteOffset": 1584, "byteLength": 480, "target": 34962 },
    { "buffer": 0, "byteOffset": 2064, "byteLength": 144, "target": 34963 },
    { "buffer": 0, "byteOffset": 2208, "byteLength": 288, "target": 34962 },
    { "buffer": 0, "byteOffset": 2496, "byteLength": 288, "target": 34962 },
    { "buffer": 0, "byteOffset": 2784, "byteLength": 72, "target": 34963 },
    { "buffer": 0, "byteOffset": 2856, "byteLength": 288, "target": 34962 },
    { "buffer": 0, "byteOffset": 3144, "byteLength": 288, "target": 34962 },
    { "buffer": 0, "byteOffset": 3432, "byteLength": 72, "target": 34963 },
    { "buffer": 0, "byteOffset": 3504, "byteLength": 288, "target": 34962 },
    { "buffer": 0, "byteOffset": 3792, "byteLength": 288, "target": 34962 },
    { "buffer": 0, "byteOffset": 4080, "byteLength": 72, "target": 34963 },
    { "buffer": 0, "byteOffset": 4152, "byteLength": 288, "target": 34962 },
    { "buffer": 0, "byteOffset": 4440, "byteLength": 288, "target": 34962 },
    { "buffer": 0, "byteOffset": 4728, "byteLength": 72, "target": 34963 }
  ],
  "buffers": [
    {
      "uri": "data:application/octet-stream;base64,",
      "byteLength": 4800
    }
  ]
}
