{
  "asset": { "version": "2.0", "generator": "learning-adventure-island world-asset-pipeline" },
  "scene": 0,
  "scenes": [{ "nodes": [0, 1] }],
  "nodes": [
    {
      "name": "Trunk",
      "mesh": 0,
      "translation": [0, 0, 0],
      "rotation": [0, 0, 0, 1],
      "scale": [1, 1, 1]
    },
    {
      "name": "Canopy",
      "mesh": 1,
      "translation": [0, 1, 0],
      "rotation": [0, 0, 0, 1],
      "scale": [1, 1, 1]
    }
  ],
  "meshes": [
    {
      "name": "TrunkMesh",
      "primitives": [
        { "attributes": { "POSITION": 0, "NORMAL": 1 }, "indices": 2, "material": 0, "mode": 4 }
      ]
    },
    {
      "name": "CanopyMesh",
      "primitives": [
        { "attributes": { "POSITION": 3, "NORMAL": 4 }, "indices": 5, "material": 1, "mode": 4 }
      ]
    }
  ],
  "materials": [
    {
      "name": "TrunkMaterial",
      "pbrMetallicRoughness": {
        "baseColorFactor": [0.35294117647058826, 0.23921568627450981, 0.1568627450980392, 1],
        "metallicFactor": 0.1,
        "roughnessFactor": 0.85
      },
      "doubleSided": true
    },
    {
      "name": "CanopyMaterial",
      "pbrMetallicRoughness": {
        "baseColorFactor": [0.24705882352941178, 0.49019607843137253, 0.2627450980392157, 1],
        "metallicFactor": 0.1,
        "roughnessFactor": 0.85
      },
      "doubleSided": true
    }
  ],
  "accessors": [
    {
      "bufferView": 0,
      "componentType": 5126,
      "count": 40,
      "type": "VEC3",
      "min": [-0.13856406460551018, 0, -0.16],
      "max": [0.13856406460551018, 1, 0.16]
    },
    { "bufferView": 1, "componentType": 5126, "count": 40, "type": "VEC3" },
    { "bufferView": 2, "componentType": 5123, "count": 72, "type": "SCALAR" },
    {
      "bufferView": 3,
      "componentType": 5126,
      "count": 35,
      "type": "VEC3",
      "min": [-0.9, 0, -0.9],
      "max": [0.9, 1.6, 0.9]
    },
    { "bufferView": 4, "componentType": 5126, "count": 35, "type": "VEC3" },
    { "bufferView": 5, "componentType": 5123, "count": 48, "type": "SCALAR" }
  ],
  "bufferViews": [
    { "buffer": 0, "byteOffset": 0, "byteLength": 480, "target": 34962 },
    { "buffer": 0, "byteOffset": 480, "byteLength": 480, "target": 34962 },
    { "buffer": 0, "byteOffset": 960, "byteLength": 144, "target": 34963 },
    { "buffer": 0, "byteOffset": 1104, "byteLength": 420, "target": 34962 },
    { "buffer": 0, "byteOffset": 1524, "byteLength": 420, "target": 34962 },
    { "buffer": 0, "byteOffset": 1944, "byteLength": 96, "target": 34963 }
  ],
  "buffers": [
    {
      "uri": "data:application/octet-stream;base64,",
      "byteLength": 2040
    }
  ]
}
