{
  "asset": { "version": "2.0", "generator": "learning-adventure-island world-asset-pipeline" },
  "scene": 0,
  "scenes": [{ "nodes": [0] }],
  "nodes": [
    {
      "name": "Tree",
      "mesh": 0,
      "translation": [0, 0, 0],
      "rotation": [0, 0, 0, 1],
      "scale": [1, 1, 1]
    }
  ],
  "meshes": [
    {
      "name": "TreeMesh",
      "primitives": [
        { "attributes": { "POSITION": 0, "NORMAL": 1 }, "indices": 2, "material": 0, "mode": 4 }
      ]
    }
  ],
  "materials": [
    {
      "name": "TreeMaterial",
      "pbrMetallicRoughness": {
        "baseColorFactor": [0.30980392156862746, 0.5607843137254902, 0.2627450980392157, 1],
        "metallicFactor": 0.1,
        "roughnessFactor": 0.85
      },
      "doubleSided": true
    }
  ],
  "accessors": [
    {
      "bufferView": 0,
      "componentType": 5126,
      "count": 75,
      "type": "VEC3",
      "min": [-1.05, 0, -1.05],
      "max": [1.05, 3.4000000000000004, 1.05]
    },
    { "bufferView": 1, "componentType": 5126, "count": 75, "type": "VEC3" },
    { "bufferView": 2, "componentType": 5123, "count": 120, "type": "SCALAR" }
  ],
  "bufferViews": [
    { "buffer": 0, "byteOffset": 0, "byteLength": 900, "target": 34962 },
    { "buffer": 0, "byteOffset": 900, "byteLength": 900, "target": 34962 },
    { "buffer": 0, "byteOffset": 1800, "byteLength": 240, "target": 34963 }
  ],
  "buffers": [
    {
      "uri": "data:application/octet-stream;base64,",
      "byteLength": 2040
    }
  ]
}
