{
  "asset": { "version": "2.0", "generator": "learning-adventure-island world-asset-pipeline" },
  "scene": 0,
  "scenes": [{ "nodes": [0] }],
  "nodes": [
    {
      "name": "Bush",
      "mesh": 0,
      "translation": [0, 0, 0],
      "rotation": [0, 0, 0, 1],
      "scale": [1, 1, 1]
    }
  ],
  "meshes": [
    {
      "name": "BushMesh",
      "primitives": [
        { "attributes": { "POSITION": 0, "NORMAL": 1 }, "indices": 2, "material": 0, "mode": 4 }
      ]
    }
  ],
  "materials": [
    {
      "name": "BushMaterial",
      "pbrMetallicRoughness": {
        "baseColorFactor": [0.20784313725490197, 0.4, 0.1843137254901961, 1],
        "metallicFactor": 0.1,
        "roughnessFactor": 0.85
      },
      "doubleSided": true
    }
  ],
  "accessors": [
    {
      "bufferView": 0,
      "componentType": 5126,
      "count": 72,
      "type": "VEC3",
      "min": [-0.33, 0, -0.3],
      "max": [0.36, 0.46, 0.26]
    },
    { "bufferView": 1, "componentType": 5126, "count": 72, "type": "VEC3" },
    { "bufferView": 2, "componentType": 5123, "count": 108, "type": "SCALAR" }
  ],
  "bufferViews": [
    { "buffer": 0, "byteOffset": 0, "byteLength": 864, "target": 34962 },
    { "buffer": 0, "byteOffset": 864, "byteLength": 864, "target": 34962 },
    { "buffer": 0, "byteOffset": 1728, "byteLength": 216, "target": 34963 }
  ],
  "buffers": [
    {
      "uri": "data:application/octet-stream;base64,",
      "byteLength": 1944
    }
  ]
}
