{
  "asset": { "version": "2.0", "generator": "learning-adventure-island world-asset-pipeline" },
  "scene": 0,
  "scenes": [{ "nodes": [0, 1, 2] }],
  "nodes": [
    {
      "name": "FrogBody",
      "mesh": 0,
      "translation": [0, 0, 0],
      "rotation": [0, 0, 0, 1],
      "scale": [1, 1, 1]
    },
    {
      "name": "FrogEyeL",
      "mesh": 1,
      "translation": [-0.06, 0.14, 0.03],
      "rotation": [0, 0, 0, 1],
      "scale": [1, 1, 1]
    },
    {
      "name": "FrogEyeR",
      "mesh": 2,
      "translation": [0.06, 0.14, 0.03],
      "rotation": [0, 0, 0, 1],
      "scale": [1, 1, 1]
    }
  ],
  "meshes": [
    {
      "name": "FrogBodyMesh",
      "primitives": [
        { "attributes": { "POSITION": 0, "NORMAL": 1 }, "indices": 2, "material": 0, "mode": 4 }
      ]
    },
    {
      "name": "FrogEyeLMesh",
      "primitives": [
        { "attributes": { "POSITION": 3, "NORMAL": 4 }, "indices": 5, "material": 1, "mode": 4 }
      ]
    },
    {
      "name": "FrogEyeRMesh",
      "primitives": [
        { "attributes": { "POSITION": 6, "NORMAL": 7 }, "indices": 8, "material": 2, "mode": 4 }
      ]
    }
  ],
  "materials": [
    {
      "name": "FrogBodyMaterial",
      "pbrMetallicRoughness": {
        "baseColorFactor": [0.35294117647058826, 0.5607843137254902, 0.2784313725490196, 1],
        "metallicFactor": 0.1,
        "roughnessFactor": 0.85
      },
      "doubleSided": true
    },
    {
      "name": "FrogEyeLMaterial",
      "pbrMetallicRoughness": {
        "baseColorFactor": [0.9411764705882353, 0.9019607843137255, 0.8470588235294118, 1],
        "metallicFactor": 0.1,
        "roughnessFactor": 0.85
      },
      "doubleSided": true
    },
    {
      "name": "FrogEyeRMaterial",
      "pbrMetallicRoughness": {
        "baseColorFactor": [0.9411764705882353, 0.9019607843137255, 0.8470588235294118, 1],
        "metallicFactor": 0.1,
        "roughnessFactor": 0.85
      },
      "doubleSided": true
    }
  ],
  "accessors": [
    {
      "bufferView": 0,
      "componentType": 5126,
      "count": 52,
      "type": "VEC3",
      "min": [-0.16, 0, -0.16],
      "max": [0.16, 0.14, 0.16]
    },
    { "bufferView": 1, "componentType": 5126, "count": 52, "type": "VEC3" },
    { "bufferView": 2, "componentType": 5123, "count": 96, "type": "SCALAR" },
    {
      "bufferView": 3,
      "componentType": 5126,
      "count": 40,
      "type": "VEC3",
      "min": [-0.034641016151377546, 0, -0.04],
      "max": [0.034641016151377546, 0.05, 0.04]
    },
    { "bufferView": 4, "componentType": 5126, "count": 40, "type": "VEC3" },
    { "bufferView": 5, "componentType": 5123, "count": 72, "type": "SCALAR" },
    {
      "bufferView": 6,
      "componentType": 5126,
      "count": 40,
      "type": "VEC3",
      "min": [-0.034641016151377546, 0, -0.04],
      "max": [0.034641016151377546, 0.05, 0.04]
    },
    { "bufferView": 7, "componentType": 5126, "count": 40, "type": "VEC3" },
    { "bufferView": 8, "componentType": 5123, "count": 72, "type": "SCALAR" }
  ],
  "bufferViews": [
    { "buffer": 0, "byteOffset": 0, "byteLength": 624, "target": 34962 },
    { "buffer": 0, "byteOffset": 624, "byteLength": 624, "target": 34962 },
    { "buffer": 0, "byteOffset": 1248, "byteLength": 192, "target": 34963 },
    { "buffer": 0, "byteOffset": 1440, "byteLength": 480, "target": 34962 },
    { "buffer": 0, "byteOffset": 1920, "byteLength": 480, "target": 34962 },
    { "buffer": 0, "byteOffset": 2400, "byteLength": 144, "target": 34963 },
    { "buffer": 0, "byteOffset": 2544, "byteLength": 480, "target": 34962 },
    { "buffer": 0, "byteOffset": 3024, "byteLength": 480, "target": 34962 },
    { "buffer": 0, "byteOffset": 3504, "byteLength": 144, "target": 34963 }
  ],
  "buffers": [
    {
      "uri": "data:application/octet-stream;base64,",
      "byteLength": 3648
    }
  ]
}
