{
  "asset": { "version": "2.0", "generator": "learning-adventure-island world-asset-pipeline" },
  "scene": 0,
  "scenes": [{ "nodes": [0, 1] }],
  "nodes": [
    {
      "name": "MouthLight",
      "mesh": 0,
      "translation": [0, 0, 0],
      "rotation": [0, 0, 0, 1],
      "scale": [1, 1, 1]
    },
    {
      "name": "MouthFrame",
      "mesh": 1,
      "translation": [0, 0, -0.3],
      "rotation": [0, 0, 0, 1],
      "scale": [1, 1, 1]
    }
  ],
  "meshes": [
    {
      "name": "MouthLightMesh",
      "primitives": [
        { "attributes": { "POSITION": 0, "NORMAL": 1 }, "indices": 2, "material": 0, "mode": 4 }
      ]
    },
    {
      "name": "MouthFrameMesh",
      "primitives": [
        { "attributes": { "POSITION": 3, "NORMAL": 4 }, "indices": 5, "material": 1, "mode": 4 }
      ]
    }
  ],
  "materials": [
    {
      "name": "MouthLightMaterial",
      "pbrMetallicRoughness": {
        "baseColorFactor": [0.9411764705882353, 0.9019607843137255, 0.8470588235294118, 1],
        "metallicFactor": 0.1,
        "roughnessFactor": 0.85
      },
      "emissiveFactor": [0.41568627450980394, 0.38823529411764707, 0.3137254901960784],
      "doubleSided": true
    },
    {
      "name": "MouthFrameMaterial",
      "pbrMetallicRoughness": {
        "baseColorFactor": [0.788235294117647, 0.5725490196078431, 0.1843137254901961, 1],
        "metallicFactor": 0.1,
        "roughnessFactor": 0.85
      },
      "doubleSided": true
    }
  ],
  "accessors": [
    {
      "bufferView": 0,
      "componentType": 5126,
      "count": 4,
      "type": "VEC3",
      "min": [-0.9, 0, 0],
      "max": [0.9, 2.2, 0]
    },
    { "bufferView": 1, "componentType": 5126, "count": 4, "type": "VEC3" },
    { "bufferView": 2, "componentType": 5123, "count": 6, "type": "SCALAR" },
    {
      "bufferView": 3,
      "componentType": 5126,
      "count": 96,
      "type": "VEC3",
      "min": [-1.2990381056766582, 0, 0],
      "max": [1.299038105676658, 3, 0.3]
    },
    { "bufferView": 4, "componentType": 5126, "count": 96, "type": "VEC3" },
    { "bufferView": 5, "componentType": 5123, "count": 144, "type": "SCALAR" }
  ],
  "bufferViews": [
    { "buffer": 0, "byteOffset": 0, "byteLength": 48, "target": 34962 },
    { "buffer": 0, "byteOffset": 48, "byteLength": 48, "target": 34962 },
    { "buffer": 0, "byteOffset": 96, "byteLength": 12, "target": 34963 },
    { "buffer": 0, "byteOffset": 108, "byteLength": 1152, "target": 34962 },
    { "buffer": 0, "byteOffset": 1260, "byteLength": 1152, "target": 34962 },
    { "buffer": 0, "byteOffset": 2412, "byteLength": 288, "target": 34963 }
  ],
  "buffers": [
    {
      "uri": "data:application/octet-stream;base64,",
      "byteLength": 2700
    }
  ]
}
