{
  "asset": { "version": "2.0", "generator": "learning-adventure-island world-asset-pipeline" },
  "scene": 0,
  "scenes": [{ "nodes": [0] }],
  "nodes": [
    {
      "name": "LilyPad",
      "mesh": 0,
      "translation": [0, 0, 0],
      "rotation": [0, 0, 0, 1],
      "scale": [1, 1, 1]
    }
  ],
  "meshes": [
    {
      "name": "LilyPadMesh",
      "primitives": [
        { "attributes": { "POSITION": 0, "NORMAL": 1 }, "indices": 2, "material": 0, "mode": 4 }
      ]
    }
  ],
  "materials": [
    {
      "name": "LilyPadMaterial",
      "pbrMetallicRoughness": {
        "baseColorFactor": [0.24705882352941178, 0.47843137254901963, 0.2901960784313726, 1],
        "metallicFactor": 0.1,
        "roughnessFactor": 0.85
      },
      "doubleSided": true
    }
  ],
  "accessors": [
    {
      "bufferView": 0,
      "componentType": 5126,
      "count": 58,
      "type": "VEC3",
      "min": [-0.44316348885549367, 0, -0.4228616793536588],
      "max": [0.4431634888554936, 0.04, 0.45]
    },
    { "bufferView": 1, "componentType": 5126, "count": 58, "type": "VEC3" },
    { "bufferView": 2, "componentType": 5123, "count": 108, "type": "SCALAR" }
  ],
  "bufferViews": [
    { "buffer": 0, "byteOffset": 0, "byteLength": 696, "target": 34962 },
    { "buffer": 0, "byteOffset": 696, "byteLength": 696, "target": 34962 },
    { "buffer": 0, "byteOffset": 1392, "byteLength": 216, "target": 34963 }
  ],
  "buffers": [
    {
      "uri": "data:application/octet-stream;base64,",
      "byteLength": 1608
    }
  ]
}
