{
  "asset": { "version": "2.0", "generator": "learning-adventure-island world-asset-pipeline" },
  "scene": 0,
  "scenes": [{ "nodes": [0] }],
  "nodes": [
    {
      "name": "Mushroom",
      "mesh": 0,
      "translation": [0, 0, 0],
      "rotation": [0, 0, 0, 1],
      "scale": [1, 1, 1]
    }
  ],
  "meshes": [
    {
      "name": "MushroomMesh",
      "primitives": [
        { "attributes": { "POSITION": 0, "NORMAL": 1 }, "indices": 2, "material": 0, "mode": 4 }
      ]
    }
  ],
  "materials": [
    {
      "name": "MushroomMaterial",
      "pbrMetallicRoughness": {
        "baseColorFactor": [0.7098039215686275, 0.27058823529411763, 0.22745098039215686, 1],
        "metallicFactor": 0.1,
        "roughnessFactor": 0.85
      },
      "doubleSided": true
    }
  ],
  "accessors": [
    {
      "bufferView": 0,
      "componentType": 5126,
      "count": 52,
      "type": "VEC3",
      "min": [-0.22, 0, -0.22],
      "max": [0.22, 0.24, 0.22]
    },
    { "bufferView": 1, "componentType": 5126, "count": 52, "type": "VEC3" },
    { "bufferView": 2, "componentType": 5123, "count": 96, "type": "SCALAR" }
  ],
  "bufferViews": [
    { "buffer": 0, "byteOffset": 0, "byteLength": 624, "target": 34962 },
    { "buffer": 0, "byteOffset": 624, "byteLength": 624, "target": 34962 },
    { "buffer": 0, "byteOffset": 1248, "byteLength": 192, "target": 34963 }
  ],
  "buffers": [
    {
      "uri": "data:application/octet-stream;base64,",
      "byteLength": 1440
    }
  ]
}
