{"asset":{"version":"2.0","generator":"learning-adventure-island world-asset-pipeline"},"scene":0,"scenes":[{"nodes":[0]}],"nodes":[{"name":"Coil","mesh":0,"translation":[0,0,0],"rotation":[0,0,0,1],"scale":[1,1,1]}],"meshes":[{"name":"CoilMesh","primitives":[{"attributes":{"POSITION":0,"NORMAL":1},"indices":2,"material":0,"mode":4}]}],"materials":[{"name":"CoilMaterial","pbrMetallicRoughness":{"baseColorFactor":[0.6901960784313725,0.4745098039215686,0.22745098039215686,1],"metallicFactor":0.1,"roughnessFactor":0.85},"doubleSided":true}],"accessors":[{"bufferView":0,"componentType":5126,"count":153,"type":"VEC3","min":[-0.29000000000000004,0,-0.29000000000000004],"max":[0.29000000000000004,0.14,0.29000000000000004]},{"bufferView":1,"componentType":5126,"count":153,"type":"VEC3"},{"bufferView":2,"componentType":5123,"count":768,"type":"SCALAR"}],"bufferViews":[{"buffer":0,"byteOffset":0,"byteLength":1836,"target":34962},{"buffer":0,"byteOffset":1836,"byteLength":1836,"target":34962},{"buffer":0,"byteOffset":3672,"byteLength":1536,"target":34963}],"buffers":[{"uri":"data:application/octet-stream;base64,","byteLength":5208}]}