{
  "asset": { "version": "2.0", "generator": "learning-adventure-island world-asset-pipeline" },
  "scene": 0,
  "scenes": [{ "nodes": [0, 1] }],
  "nodes": [
    {
      "name": "Frame",
      "mesh": 0,
      "translation": [0, 0.45, 0],
      "rotation": [0.7071067811865475, 0, 0, 0.7071067811865476],
      "scale": [1, 1, 1]
    },
    {
      "name": "Glass",
      "mesh": 1,
      "translation": [0, 0.45, 0.02],
      "rotation": [0.7071067811865475, 0, 0, 0.7071067811865476],
      "scale": [1, 1, 1]
    }
  ],
  "meshes": [
    {
      "name": "FrameMesh",
      "primitives": [
        { "attributes": { "POSITION": 0, "NORMAL": 1 }, "indices": 2, "material": 0, "mode": 4 }
      ]
    },
    {
      "name": "GlassMesh",
      "primitives": [
        { "attributes": { "POSITION": 3, "NORMAL": 4 }, "indices": 5, "material": 1, "mode": 4 }
      ]
    }
  ],
  "materials": [
    {
      "name": "FrameMaterial",
      "pbrMetallicRoughness": {
        "baseColorFactor": [0.42745098039215684, 0.45098039215686275, 0.5019607843137255, 1],
        "metallicFactor": 0.1,
        "roughnessFactor": 0.85
      },
      "doubleSided": true
    },
    {
      "name": "GlassMaterial",
      "pbrMetallicRoughness": {
        "baseColorFactor": [0.9019607843137255, 0.8627450980392157, 0.7529411764705882, 1],
        "metallicFactor": 0.1,
        "roughnessFactor": 0.85
      },
      "emissiveFactor": [0.2901960784313726, 0.1843137254901961, 0.047058823529411764],
      "doubleSided": true
    }
  ],
  "accessors": [
    {
      "bufferView": 0,
      "componentType": 5126,
      "count": 189,
      "type": "VEC3",
      "min": [-0.51, 0, -0.51],
      "max": [0.51, 0.12, 0.51]
    },
    { "bufferView": 1, "componentType": 5126, "count": 189, "type": "VEC3" },
    { "bufferView": 2, "componentType": 5123, "count": 960, "type": "SCALAR" },
    {
      "bufferView": 3,
      "componentType": 5126,
      "count": 124,
      "type": "VEC3",
      "min": [-0.42, 0, -0.42],
      "max": [0.42, 0.03, 0.42]
    },
    { "bufferView": 4, "componentType": 5126, "count": 124, "type": "VEC3" },
    { "bufferView": 5, "componentType": 5123, "count": 240, "type": "SCALAR" }
  ],
  "bufferViews": [
    { "buffer": 0, "byteOffset": 0, "byteLength": 2268, "target": 34962 },
    { "buffer": 0, "byteOffset": 2268, "byteLength": 2268, "target": 34962 },
    { "buffer": 0, "byteOffset": 4536, "byteLength": 1920, "target": 34963 },
    { "buffer": 0, "byteOffset": 6456, "byteLength": 1488, "target": 34962 },
    { "buffer": 0, "byteOffset": 7944, "byteLength": 1488, "target": 34962 },
    { "buffer": 0, "byteOffset": 9432, "byteLength": 480, "target": 34963 }
  ],
  "buffers": [
    {
      "uri": "data:application/octet-stream;base64,",
      "byteLength": 9912
    }
  ]
}
