{
  "asset": { "version": "2.0", "generator": "learning-adventure-island world-asset-pipeline" },
  "scene": 0,
  "scenes": [{ "nodes": [0, 1] }],
  "nodes": [
    {
      "name": "Door",
      "mesh": 0,
      "translation": [-0.5, 0, 0],
      "rotation": [0, -0.29552020666133955, 0, 0.955336489125606],
      "scale": [1, 1, 1]
    },
    {
      "name": "LightSpill",
      "mesh": 1,
      "translation": [0, 0, -0.05],
      "rotation": [0, 0, 0, 1],
      "scale": [1, 1, 1]
    }
  ],
  "meshes": [
    {
      "name": "DoorMesh",
      "primitives": [
        { "attributes": { "POSITION": 0, "NORMAL": 1 }, "indices": 2, "material": 0, "mode": 4 }
      ]
    },
    {
      "name": "LightSpillMesh",
      "primitives": [
        { "attributes": { "POSITION": 3, "NORMAL": 4 }, "indices": 5, "material": 1, "mode": 4 }
      ]
    }
  ],
  "materials": [
    {
      "name": "DoorMaterial",
      "pbrMetallicRoughness": {
        "baseColorFactor": [0.42745098039215684, 0.45098039215686275, 0.5019607843137255, 1],
        "metallicFactor": 0.1,
        "roughnessFactor": 0.85
      },
      "doubleSided": true
    },
    {
      "name": "LightSpillMaterial",
      "pbrMetallicRoughness": {
        "baseColorFactor": [1, 0.611764705882353, 0.22745098039215686, 1],
        "metallicFactor": 0.1,
        "roughnessFactor": 0.85
      },
      "emissiveFactor": [0.4196078431372549, 0.26666666666666666, 0.06274509803921569],
      "doubleSided": true
    }
  ],
  "accessors": [
    {
      "bufferView": 0,
      "componentType": 5126,
      "count": 4,
      "type": "VEC3",
      "min": [-0.5, 0, 0],
      "max": [0.5, 2.2, 0]
    },
    { "bufferView": 1, "componentType": 5126, "count": 4, "type": "VEC3" },
    { "bufferView": 2, "componentType": 5123, "count": 6, "type": "SCALAR" },
    {
      "bufferView": 3,
      "componentType": 5126,
      "count": 4,
      "type": "VEC3",
      "min": [-0.45, 0, 0],
      "max": [0.45, 2.1, 0]
    },
    { "bufferView": 4, "componentType": 5126, "count": 4, "type": "VEC3" },
    { "bufferView": 5, "componentType": 5123, "count": 6, "type": "SCALAR" },
    {
      "bufferView": 6,
      "componentType": 5126,
      "count": 2,
      "type": "SCALAR",
      "min": [0],
      "max": [1.2]
    },
    { "bufferView": 7, "componentType": 5126, "count": 2, "type": "VEC4" }
  ],
  "bufferViews": [
    { "buffer": 0, "byteOffset": 0, "byteLength": 48, "target": 34962 },
    { "buffer": 0, "byteOffset": 48, "byteLength": 48, "target": 34962 },
    { "buffer": 0, "byteOffset": 96, "byteLength": 12, "target": 34963 },
    { "buffer": 0, "byteOffset": 108, "byteLength": 48, "target": 34962 },
    { "buffer": 0, "byteOffset": 156, "byteLength": 48, "target": 34962 },
    { "buffer": 0, "byteOffset": 204, "byteLength": 12, "target": 34963 },
    { "buffer": 0, "byteOffset": 216, "byteLength": 8 },
    { "buffer": 0, "byteOffset": 224, "byteLength": 32 }
  ],
  "animations": [
    {
      "name": "Open",
      "channels": [{ "sampler": 0, "target": { "node": 0, "path": "rotation" } }],
      "samplers": [{ "input": 6, "output": 7, "interpolation": "LINEAR" }]
    }
  ],
  "buffers": [
    {
      "uri": "data:application/octet-stream;base64,",
      "byteLength": 256
    }
  ]
}
