{
  "asset": { "version": "2.0", "generator": "learning-adventure-island world-asset-pipeline" },
  "scene": 0,
  "scenes": [{ "nodes": [0, 1, 2, 3] }],
  "nodes": [
    {
      "name": "Hull",
      "mesh": 0,
      "translation": [0, 0, 0],
      "rotation": [0, 0, 0.10977830083717481, 0.9939560979566968],
      "scale": [1, 1, 1]
    },
    {
      "name": "Rail",
      "mesh": 1,
      "translation": [0, 1.7, 0],
      "rotation": [0, 0, 0.10977830083717481, 0.9939560979566968],
      "scale": [1, 1, 1]
    },
    {
      "name": "Mast",
      "mesh": 2,
      "translation": [0.5, 1.6, 0],
      "rotation": [0, 0, 0.24740395925452294, 0.9689124217106447],
      "scale": [1, 1, 1]
    },
    {
      "name": "Sail",
      "mesh": 3,
      "translation": [-0.55, 2.3, 0],
      "rotation": [0, 0, 0.24740395925452294, 0.9689124217106447],
      "scale": [1, 1, 1]
    }
  ],
  "meshes": [
    {
      "name": "HullMesh",
      "primitives": [
        { "attributes": { "POSITION": 0, "NORMAL": 1 }, "indices": 2, "material": 0, "mode": 4 }
      ]
    },
    {
      "name": "RailMesh",
      "primitives": [
        { "attributes": { "POSITION": 3, "NORMAL": 4 }, "indices": 5, "material": 1, "mode": 4 }
      ]
    },
    {
      "name": "MastMesh",
      "primitives": [
        { "attributes": { "POSITION": 6, "NORMAL": 7 }, "indices": 8, "material": 2, "mode": 4 }
      ]
    },
    {
      "name": "SailMesh",
      "primitives": [
        { "attributes": { "POSITION": 9, "NORMAL": 10 }, "indices": 11, "material": 3, "mode": 4 }
      ]
    }
  ],
  "materials": [
    {
      "name": "HullMaterial",
      "pbrMetallicRoughness": {
        "baseColorFactor": [0.43529411764705883, 0.29411764705882354, 0.18823529411764706, 1],
        "metallicFactor": 0.1,
        "roughnessFactor": 0.85
      },
      "doubleSided": true
    },
    {
      "name": "RailMaterial",
      "pbrMetallicRoughness": {
        "baseColorFactor": [0.5411764705882353, 0.41568627450980394, 0.27058823529411763, 1],
        "metallicFactor": 0.1,
        "roughnessFactor": 0.85
      },
      "doubleSided": true
    },
    {
      "name": "MastMaterial",
      "pbrMetallicRoughness": {
        "baseColorFactor": [0.35294117647058826, 0.23921568627450981, 0.1568627450980392, 1],
        "metallicFactor": 0.1,
        "roughnessFactor": 0.85
      },
      "doubleSided": true
    },
    {
      "name": "SailMaterial",
      "pbrMetallicRoughness": {
        "baseColorFactor": [0.8941176470588236, 0.8627450980392157, 0.7686274509803922, 1],
        "metallicFactor": 0.1,
        "roughnessFactor": 0.85
      },
      "doubleSided": true
    }
  ],
  "accessors": [
    {
      "bufferView": 0,
      "componentType": 5126,
      "count": 24,
      "type": "VEC3",
      "min": [-3, 0, -1.1],
      "max": [3, 1.8, 1.1]
    },
    { "bufferView": 1, "componentType": 5126, "count": 24, "type": "VEC3" },
    { "bufferView": 2, "componentType": 5123, "count": 36, "type": "SCALAR" },
    {
      "bufferView": 3,
      "componentType": 5126,
      "count": 24,
      "type": "VEC3",
      "min": [-3.2, 0, -1.3],
      "max": [3.2, 0.22, 1.3]
    },
    { "bufferView": 4, "componentType": 5126, "count": 24, "type": "VEC3" },
    { "bufferView": 5, "componentType": 5123, "count": 36, "type": "SCALAR" },
    {
      "bufferView": 6,
      "componentType": 5126,
      "count": 52,
      "type": "VEC3",
      "min": [-0.2, 0, -0.2],
      "max": [0.2, 4.2, 0.2]
    },
    { "bufferView": 7, "componentType": 5126, "count": 52, "type": "VEC3" },
    { "bufferView": 8, "componentType": 5123, "count": 96, "type": "SCALAR" },
    {
      "bufferView": 9,
      "componentType": 5126,
      "count": 24,
      "type": "VEC3",
      "min": [-1.1, 0, -0.03],
      "max": [1.1, 2.4, 0.03]
    },
    { "bufferView": 10, "componentType": 5126, "count": 24, "type": "VEC3" },
    { "bufferView": 11, "componentType": 5123, "count": 36, "type": "SCALAR" }
  ],
  "bufferViews": [
    { "buffer": 0, "byteOffset": 0, "byteLength": 288, "target": 34962 },
    { "buffer": 0, "byteOffset": 288, "byteLength": 288, "target": 34962 },
    { "buffer": 0, "byteOffset": 576, "byteLength": 72, "target": 34963 },
    { "buffer": 0, "byteOffset": 648, "byteLength": 288, "target": 34962 },
    { "buffer": 0, "byteOffset": 936, "byteLength": 288, "target": 34962 },
    { "buffer": 0, "byteOffset": 1224, "byteLength": 72, "target": 34963 },
    { "buffer": 0, "byteOffset": 1296, "byteLength": 624, "target": 34962 },
    { "buffer": 0, "byteOffset": 1920, "byteLength": 624, "target": 34962 },
    { "buffer": 0, "byteOffset": 2544, "byteLength": 192, "target": 34963 },
    { "buffer": 0, "byteOffset": 2736, "byteLength": 288, "target": 34962 },
    { "buffer": 0, "byteOffset": 3024, "byteLength": 288, "target": 34962 },
    { "buffer": 0, "byteOffset": 3312, "byteLength": 72, "target": 34963 }
  ],
  "buffers": [
    {
      "uri": "data:application/octet-stream;base64,",
      "byteLength": 3384
    }
  ]
}
