{
  "asset": { "version": "2.0", "generator": "learning-adventure-island world-asset-pipeline" },
  "scene": 0,
  "scenes": [{ "nodes": [0, 1] }],
  "nodes": [
    {
      "name": "Post",
      "mesh": 0,
      "translation": [0, 0, 0],
      "rotation": [0, 0, 0, 1],
      "scale": [1, 1, 1]
    },
    {
      "name": "Plank",
      "mesh": 1,
      "translation": [0, 0.9, 0],
      "rotation": [0, 0, 0, 1],
      "scale": [1, 1, 1]
    }
  ],
  "meshes": [
    {
      "name": "PostMesh",
      "primitives": [
        { "attributes": { "POSITION": 0, "NORMAL": 1 }, "indices": 2, "material": 0, "mode": 4 }
      ]
    },
    {
      "name": "PlankMesh",
      "primitives": [
        { "attributes": { "POSITION": 3, "NORMAL": 4 }, "indices": 5, "material": 1, "mode": 4 }
      ]
    }
  ],
  "materials": [
    {
      "name": "PostMaterial",
      "pbrMetallicRoughness": {
        "baseColorFactor": [0.4196078431372549, 0.2901960784313726, 0.20392156862745098, 1],
        "metallicFactor": 0.1,
        "roughnessFactor": 0.85
      },
      "doubleSided": true
    },
    {
      "name": "PlankMaterial",
      "pbrMetallicRoughness": {
        "baseColorFactor": [0.788235294117647, 0.7058823529411765, 0.5411764705882353, 1],
        "metallicFactor": 0.1,
        "roughnessFactor": 0.85
      },
      "doubleSided": true
    }
  ],
  "accessors": [
    {
      "bufferView": 0,
      "componentType": 5126,
      "count": 52,
      "type": "VEC3",
      "min": [-0.05, 0, -0.05],
      "max": [0.05, 1.2, 0.05]
    },
    { "bufferView": 1, "componentType": 5126, "count": 52, "type": "VEC3" },
    { "bufferView": 2, "componentType": 5123, "count": 96, "type": "SCALAR" },
    {
      "bufferView": 3,
      "componentType": 5126,
      "count": 24,
      "type": "VEC3",
      "min": [-0.25, 0, -0.025],
      "max": [0.25, 0.15, 0.025]
    },
    { "bufferView": 4, "componentType": 5126, "count": 24, "type": "VEC3" },
    { "bufferView": 5, "componentType": 5123, "count": 36, "type": "SCALAR" }
  ],
  "bufferViews": [
    { "buffer": 0, "byteOffset": 0, "byteLength": 624, "target": 34962 },
    { "buffer": 0, "byteOffset": 624, "byteLength": 624, "target": 34962 },
    { "buffer": 0, "byteOffset": 1248, "byteLength": 192, "target": 34963 },
    { "buffer": 0, "byteOffset": 1440, "byteLength": 288, "target": 34962 },
    { "buffer": 0, "byteOffset": 1728, "byteLength": 288, "target": 34962 },
    { "buffer": 0, "byteOffset": 2016, "byteLength": 72, "target": 34963 }
  ],
  "buffers": [
    {
      "uri": "data:application/octet-stream;base64,",
      "byteLength": 2088
    }
  ]
}
