{
  "asset": { "version": "2.0", "generator": "learning-adventure-island world-asset-pipeline" },
  "scene": 0,
  "scenes": [{ "nodes": [0, 1, 2] }],
  "nodes": [
    {
      "name": "Stone",
      "mesh": 0,
      "translation": [0, 0, 0],
      "rotation": [0, 0, 0, 1],
      "scale": [1, 1, 1]
    },
    {
      "name": "EmblemDisc",
      "mesh": 1,
      "translation": [0, 0.95, 0.14],
      "rotation": [0.7071067811865475, 0, 0, 0.7071067811865476],
      "scale": [1, 1, 1]
    },
    {
      "name": "EmblemRays",
      "mesh": 2,
      "translation": [0, 0.95, 0.14],
      "rotation": [0, 0, 0, 1],
      "scale": [1, 1, 1]
    }
  ],
  "meshes": [
    {
      "name": "StoneMesh",
      "primitives": [
        { "attributes": { "POSITION": 0, "NORMAL": 1 }, "indices": 2, "material": 0, "mode": 4 }
      ]
    },
    {
      "name": "EmblemDiscMesh",
      "primitives": [
        { "attributes": { "POSITION": 3, "NORMAL": 4 }, "indices": 5, "material": 1, "mode": 4 }
      ]
    },
    {
      "name": "EmblemRaysMesh",
      "primitives": [
        { "attributes": { "POSITION": 6, "NORMAL": 7 }, "indices": 8, "material": 2, "mode": 4 }
      ]
    }
  ],
  "materials": [
    {
      "name": "StoneMaterial",
      "pbrMetallicRoughness": {
        "baseColorFactor": [0.5450980392156862, 0.5607843137254902, 0.5882352941176471, 1],
        "metallicFactor": 0.1,
        "roughnessFactor": 0.85
      },
      "doubleSided": true
    },
    {
      "name": "EmblemDiscMaterial",
      "pbrMetallicRoughness": {
        "baseColorFactor": [0.9098039215686274, 0.7490196078431373, 0.2901960784313726, 1],
        "metallicFactor": 0.1,
        "roughnessFactor": 0.85
      },
      "doubleSided": true
    },
    {
      "name": "EmblemRaysMaterial",
      "pbrMetallicRoughness": {
        "baseColorFactor": [0.9098039215686274, 0.7490196078431373, 0.2901960784313726, 1],
        "metallicFactor": 0.1,
        "roughnessFactor": 0.85
      },
      "doubleSided": true
    }
  ],
  "accessors": [
    {
      "bufferView": 0,
      "componentType": 5126,
      "count": 24,
      "type": "VEC3",
      "min": [-0.45, 0, -0.125],
      "max": [0.45, 1.5, 0.125]
    },
    { "bufferView": 1, "componentType": 5126, "count": 24, "type": "VEC3" },
    { "bufferView": 2, "componentType": 5123, "count": 36, "type": "SCALAR" },
    {
      "bufferView": 3,
      "componentType": 5126,
      "count": 76,
      "type": "VEC3",
      "min": [-0.17, 0, -0.17],
      "max": [0.17, 0.06, 0.17]
    },
    { "bufferView": 4, "componentType": 5126, "count": 76, "type": "VEC3" },
    { "bufferView": 5, "componentType": 5123, "count": 144, "type": "SCALAR" },
    {
      "bufferView": 6,
      "componentType": 5126,
      "count": 91,
      "type": "VEC3",
      "min": [-0.31500000000000006, 0.0046891108675446505, -0.31500000000000006],
      "max": [0.31500000000000006, 0.06531088913245536, 0.31500000000000006]
    },
    { "bufferView": 7, "componentType": 5126, "count": 91, "type": "VEC3" },
    { "bufferView": 8, "componentType": 5123, "count": 432, "type": "SCALAR" }
  ],
  "bufferViews": [
    { "buffer": 0, "byteOffset": 0, "byteLength": 288, "target": 34962 },
    { "buffer": 0, "byteOffset": 288, "byteLength": 288, "target": 34962 },
    { "buffer": 0, "byteOffset": 576, "byteLength": 72, "target": 34963 },
    { "buffer": 0, "byteOffset": 648, "byteLength": 912, "target": 34962 },
    { "buffer": 0, "byteOffset": 1560, "byteLength": 912, "target": 34962 },
    { "buffer": 0, "byteOffset": 2472, "byteLength": 288, "target": 34963 },
    { "buffer": 0, "byteOffset": 2760, "byteLength": 1092, "target": 34962 },
    { "buffer": 0, "byteOffset": 3852, "byteLength": 1092, "target": 34962 },
    { "buffer": 0, "byteOffset": 4944, "byteLength": 864, "target": 34963 }
  ],
  "buffers": [
    {
      "uri": "data:application/octet-stream;base64,",
      "byteLength": 5808
    }
  ]
}
